<svg width="15" height="15" viewBox="0 0 15 15" fill="none" xmlns="http://www.w3.org/2000/svg">
<g clip-path="url(#clip0_503_10827)">
<path d="M7.31534 0.443986C7.38365 0.279728 7.61634 0.279727 7.68466 0.443986L9.43686 4.65678C9.46566 4.72602 9.53079 4.77334 9.60554 4.77933L14.1536 5.14395C14.3309 5.15816 14.4028 5.37946 14.2677 5.4952L10.8026 8.46346C10.7456 8.51225 10.7208 8.58881 10.7382 8.66176L11.7968 13.0999C11.8381 13.2729 11.6498 13.4097 11.498 13.317L7.60425 10.9387C7.54025 10.8996 7.45975 10.8996 7.39575 10.9387L3.50198 13.317C3.35016 13.4097 3.1619 13.2729 3.20318 13.0999L4.26184 8.66176C4.27924 8.58881 4.25437 8.51225 4.19741 8.46346L0.732267 5.4952C0.59716 5.37946 0.669065 5.15816 0.846396 5.14395L5.39446 4.77933C5.46921 4.77334 5.53434 4.72602 5.56314 4.65678L7.31534 0.443986Z" fill="#FFA800"/>
</g>
<defs>
<clipPath id="clip0_503_10827">
<rect width="15" height="15" fill="white"/>
</clipPath>
</defs>
</svg>
